<svg width="24" height="24" viewBox="0 0 24 24" fill="none" xmlns="http://www.w3.org/2000/svg">
<g transform="translate(1, 2)">
<path d="M15.875 11.9995C19 11.9995 21.6687 13.9433 22.75 16.687C21.6687 19.4307 19 21.3745 15.875 21.3745C12.75 21.3745 10.0813 19.4307 9 16.687C10.0813 13.9433 12.75 11.9995 15.875 11.9995ZM15.875 13.562C14.15 13.562 12.75 14.962 12.75 16.687C12.75 18.412 14.15 19.812 15.875 19.812C17.6 19.812 19 18.412 19 16.687C19 14.962 17.6 13.562 15.875 13.562ZM5.63965 0.149921C5.83962 -0.0499817 6.14963 -0.0499654 6.34961 0.149921L7.15039 0.949725C7.35036 1.14928 7.66048 1.14946 7.86035 0.949725L8.65039 0.159686C8.85038 -0.0400824 9.16042 -0.0401769 9.36035 0.159686L10.1504 0.949725C10.3504 1.14928 10.6605 1.14946 10.8604 0.949725L11.6504 0.159686C11.8504 -0.0400824 12.1604 -0.0401769 12.3604 0.159686L13.1504 0.949725C13.3504 1.14928 13.6605 1.14946 13.8604 0.949725L14.6504 0.159686C14.8504 -0.0400824 15.1604 -0.0401769 15.3604 0.159686L16.1504 0.949725C16.3504 1.14928 16.6605 1.14946 16.8604 0.949725L17.6504 0.159686C17.7381 0.0623327 17.8636 0.012716 17.9902 0.0102723V10.1753C17.3454 10.0599 16.6801 9.99953 16 9.99953C11.4546 9.99953 8.57274 12.6949 7 16.4995C7.47369 17.6454 7.8894 18.464 8.23828 19.0484L7.84961 18.6597C7.64962 18.4599 7.33958 18.4598 7.13965 18.6597L6.34961 19.4497C6.14964 19.6493 5.83952 19.6495 5.63965 19.4497L4.84961 18.6597C4.64962 18.4599 4.33958 18.4598 4.13965 18.6597L3.34961 19.4497C3.14964 19.6493 2.83952 19.6495 2.63965 19.4497L1.84961 18.6597C1.64962 18.4599 1.33958 18.4598 1.13965 18.6597L0.349609 19.4497C0.259624 19.5494 0.129817 19.5991 0 19.5991V0.00929569C0.129956 0.00929569 0.259613 0.059978 0.349609 0.149921L1.13965 0.949725C1.33952 1.14946 1.64964 1.14928 1.84961 0.949725L2.63965 0.149921C2.83962 -0.0499817 3.14963 -0.0499654 3.34961 0.149921L4.13965 0.949725C4.33952 1.14946 4.64964 1.14928 4.84961 0.949725L5.63965 0.149921ZM15.875 14.812C16.9125 14.812 17.75 15.6495 17.75 16.687C17.75 17.7245 16.9125 18.562 15.875 18.562C14.8375 18.562 14 17.7245 14 16.687C14 15.6495 14.8375 14.812 15.875 14.812ZM4 12.7993C3.45013 12.7993 3.00021 13.2495 3 13.7993C3.00015 14.3492 3.45009 14.7993 4 14.7993H5.5C6.04991 14.7993 6.49985 14.3492 6.5 13.7993C6.49979 13.2495 6.04987 12.7993 5.5 12.7993H4ZM4 8.79933C3.45013 8.79933 3.00021 9.24951 3 9.79933C3.00015 10.3492 3.45009 10.7993 4 10.7993H9C9.54991 10.7993 9.99985 10.3492 10 9.79933C9.99979 9.24951 9.54987 8.79933 9 8.79933H4ZM4 4.79933C3.45013 4.79933 3.00021 5.24951 3 5.79933C3.00015 6.34921 3.45009 6.79933 4 6.79933H14C14.5499 6.79933 14.9999 6.34921 15 5.79933C14.9998 5.24951 14.5499 4.79933 14 4.79933H4Z" fill="#2F455C"/>
</g>
</svg>
