<svg width="24" height="24" viewBox="0 0 24 24" fill="none" xmlns="http://www.w3.org/2000/svg">
<g id="Actions/expensya-card">
<path id="Icon Shape" d="M22 3C23.1046 3 24 3.89543 24 5V19C24 20.1046 23.1046 21 22 21H2C0.895431 21 8.05332e-09 20.1046 0 19V5C0 3.89543 0.895431 3 2 3H22ZM10.9941 7C10.7301 7.00001 10.4735 7.09883 10.2871 7.26855C10.1008 7.43824 9.99225 7.67175 9.99219 7.91211C9.99219 8.15245 10.1009 8.38595 10.2871 8.55566C10.4735 8.72539 10.7301 8.82421 10.9941 8.82422H15.499C15.5612 8.82422 15.6312 8.83914 15.6934 8.86035C15.7554 8.88158 15.8099 8.91661 15.8564 8.95898C15.903 9.00137 15.9415 9.05093 15.9648 9.10742C15.9881 9.16396 16.0039 9.22058 16.0039 9.28418V9.33398C15.9962 9.37634 15.9882 9.41195 15.9727 9.44727C15.9493 9.50371 15.9108 9.55335 15.8643 9.5957C15.8177 9.63808 15.7632 9.67311 15.7012 9.69434C15.639 9.71555 15.5767 9.72949 15.5068 9.72949H9.00586C8.74178 9.72949 8.48524 9.82222 8.29883 9.99902C8.11262 10.1687 8.00391 10.4023 8.00391 10.6426C8.00403 10.8829 8.11253 11.1165 8.29883 11.2861C8.48523 11.4558 8.74183 11.5547 9.00586 11.5547H13.5107C13.6427 11.5547 13.775 11.6037 13.8682 11.6885C13.9613 11.7733 14.0156 11.8867 14.0156 12.0068C14.0156 12.127 13.9613 12.2403 13.8682 12.3252C13.775 12.41 13.6505 12.4599 13.5107 12.46H7.00195C6.73788 12.46 6.48133 12.5588 6.29492 12.7285C6.10086 12.8912 6 13.1249 6 13.3652V17H12.998C13.1301 17 13.2624 16.9792 13.3867 16.9297C13.5109 16.8802 13.6197 16.8163 13.7129 16.7314C13.806 16.6467 13.8831 16.5475 13.9297 16.4346C13.9763 16.3215 14.0078 16.208 14.0078 16.0879V14.2773H14.9941C15.266 14.2773 15.5226 14.1785 15.709 14.0088C15.9032 13.8391 16.0039 13.5979 16.0039 13.3574V11.5479H16.9902C17.2621 11.5479 17.5187 11.4481 17.7051 11.2783C17.8913 11.1016 18 10.8684 18 10.6211V7H10.9941Z" fill="#2F455C"/>
</g>
</svg>
